<mxfile host="app.diagrams.net" modified="2023-12-13T22:19:16.358Z" agent="Mozilla/5.0 (X11; Linux x86_64) AppleWebKit/537.36 (KHTML, like Gecko) Chrome/117.0.0.0 Safari/537.36" etag="sag9antegbMuHCmfZSsD" version="22.1.8" type="device">
  <diagram name="Page-1" id="S28LVsWNfqBICNQwM52b">
    <mxGraphModel dx="1414" dy="683" grid="1" gridSize="10" guides="1" tooltips="1" connect="1" arrows="1" fold="1" page="1" pageScale="1" pageWidth="850" pageHeight="1100" math="0" shadow="0">
      <root>
        <mxCell id="0" />
        <mxCell id="1" parent="0" />
        <mxCell id="i-3X_E-RtPxqabaHNJif-2" style="edgeStyle=orthogonalEdgeStyle;rounded=0;orthogonalLoop=1;jettySize=auto;html=1;" edge="1" parent="1" target="i-3X_E-RtPxqabaHNJif-3">
          <mxGeometry relative="1" as="geometry">
            <mxPoint x="160" y="240" as="targetPoint" />
            <mxPoint x="160.0344827586207" y="190" as="sourcePoint" />
          </mxGeometry>
        </mxCell>
        <mxCell id="i-3X_E-RtPxqabaHNJif-4" style="edgeStyle=orthogonalEdgeStyle;rounded=0;orthogonalLoop=1;jettySize=auto;html=1;" edge="1" parent="1" source="i-3X_E-RtPxqabaHNJif-3" target="i-3X_E-RtPxqabaHNJif-5">
          <mxGeometry relative="1" as="geometry">
            <mxPoint x="160" y="310" as="targetPoint" />
          </mxGeometry>
        </mxCell>
        <mxCell id="i-3X_E-RtPxqabaHNJif-3" value="Inicializace GPI&lt;br&gt;Inicializace paměti&lt;br&gt;Inicializace wifi&lt;br&gt;kalibrace ADC" style="rounded=0;whiteSpace=wrap;html=1;" vertex="1" parent="1">
          <mxGeometry x="100" y="210" width="120" height="60" as="geometry" />
        </mxCell>
        <mxCell id="i-3X_E-RtPxqabaHNJif-8" style="edgeStyle=orthogonalEdgeStyle;rounded=0;orthogonalLoop=1;jettySize=auto;html=1;" edge="1" parent="1" source="i-3X_E-RtPxqabaHNJif-5" target="i-3X_E-RtPxqabaHNJif-9">
          <mxGeometry relative="1" as="geometry">
            <mxPoint x="160" y="390" as="targetPoint" />
          </mxGeometry>
        </mxCell>
        <mxCell id="i-3X_E-RtPxqabaHNJif-5" value="Připojení na wifi" style="rounded=0;whiteSpace=wrap;html=1;" vertex="1" parent="1">
          <mxGeometry x="100" y="300" width="120" height="60" as="geometry" />
        </mxCell>
        <mxCell id="i-3X_E-RtPxqabaHNJif-10" style="edgeStyle=orthogonalEdgeStyle;rounded=0;orthogonalLoop=1;jettySize=auto;html=1;" edge="1" parent="1" source="i-3X_E-RtPxqabaHNJif-9" target="i-3X_E-RtPxqabaHNJif-11">
          <mxGeometry relative="1" as="geometry">
            <mxPoint x="160" y="500" as="targetPoint" />
          </mxGeometry>
        </mxCell>
        <mxCell id="i-3X_E-RtPxqabaHNJif-9" value="Spuštění web serveru" style="rounded=0;whiteSpace=wrap;html=1;" vertex="1" parent="1">
          <mxGeometry x="100" y="400" width="120" height="60" as="geometry" />
        </mxCell>
        <mxCell id="i-3X_E-RtPxqabaHNJif-11" value="Nastavení časového přerušení" style="rounded=0;whiteSpace=wrap;html=1;" vertex="1" parent="1">
          <mxGeometry x="100" y="490" width="120" height="60" as="geometry" />
        </mxCell>
        <mxCell id="i-3X_E-RtPxqabaHNJif-13" value="" style="swimlane;startSize=0;" vertex="1" parent="1">
          <mxGeometry x="60" y="110" width="190" height="460" as="geometry" />
        </mxCell>
        <mxCell id="i-3X_E-RtPxqabaHNJif-16" value="Start" style="ellipse;whiteSpace=wrap;html=1;" vertex="1" parent="i-3X_E-RtPxqabaHNJif-13">
          <mxGeometry x="40" y="20" width="120" height="60" as="geometry" />
        </mxCell>
        <mxCell id="i-3X_E-RtPxqabaHNJif-14" value="Inicializace po spuštění" style="text;html=1;strokeColor=none;fillColor=none;align=center;verticalAlign=middle;whiteSpace=wrap;rounded=0;" vertex="1" parent="1">
          <mxGeometry x="60" y="80" width="140" height="30" as="geometry" />
        </mxCell>
        <mxCell id="i-3X_E-RtPxqabaHNJif-18" style="edgeStyle=orthogonalEdgeStyle;rounded=0;orthogonalLoop=1;jettySize=auto;html=1;" edge="1" parent="1" source="i-3X_E-RtPxqabaHNJif-17" target="i-3X_E-RtPxqabaHNJif-19">
          <mxGeometry relative="1" as="geometry">
            <mxPoint x="640" y="180" as="targetPoint" />
          </mxGeometry>
        </mxCell>
        <mxCell id="i-3X_E-RtPxqabaHNJif-17" value="Start" style="ellipse;whiteSpace=wrap;html=1;" vertex="1" parent="1">
          <mxGeometry x="580" y="80" width="120" height="60" as="geometry" />
        </mxCell>
        <mxCell id="i-3X_E-RtPxqabaHNJif-20" style="edgeStyle=orthogonalEdgeStyle;rounded=0;orthogonalLoop=1;jettySize=auto;html=1;" edge="1" parent="1" source="i-3X_E-RtPxqabaHNJif-19" target="i-3X_E-RtPxqabaHNJif-21">
          <mxGeometry relative="1" as="geometry">
            <mxPoint x="640" y="270" as="targetPoint" />
          </mxGeometry>
        </mxCell>
        <mxCell id="i-3X_E-RtPxqabaHNJif-19" value="Získání hodnoty napětí" style="rounded=0;whiteSpace=wrap;html=1;" vertex="1" parent="1">
          <mxGeometry x="580" y="170" width="120" height="60" as="geometry" />
        </mxCell>
        <mxCell id="i-3X_E-RtPxqabaHNJif-22" style="edgeStyle=orthogonalEdgeStyle;rounded=0;orthogonalLoop=1;jettySize=auto;html=1;" edge="1" parent="1" source="i-3X_E-RtPxqabaHNJif-21" target="i-3X_E-RtPxqabaHNJif-23">
          <mxGeometry relative="1" as="geometry">
            <mxPoint x="640" y="350" as="targetPoint" />
          </mxGeometry>
        </mxCell>
        <mxCell id="i-3X_E-RtPxqabaHNJif-21" value="Převední napětí na teplotu" style="rounded=0;whiteSpace=wrap;html=1;" vertex="1" parent="1">
          <mxGeometry x="580" y="260" width="120" height="60" as="geometry" />
        </mxCell>
        <mxCell id="i-3X_E-RtPxqabaHNJif-24" style="edgeStyle=orthogonalEdgeStyle;rounded=0;orthogonalLoop=1;jettySize=auto;html=1;" edge="1" parent="1" source="i-3X_E-RtPxqabaHNJif-23">
          <mxGeometry relative="1" as="geometry">
            <mxPoint x="640.0344827586209" y="430.0000000000001" as="targetPoint" />
          </mxGeometry>
        </mxCell>
        <mxCell id="i-3X_E-RtPxqabaHNJif-23" value="Uložení teploty do paměti" style="rounded=0;whiteSpace=wrap;html=1;" vertex="1" parent="1">
          <mxGeometry x="580" y="340" width="120" height="60" as="geometry" />
        </mxCell>
        <mxCell id="i-3X_E-RtPxqabaHNJif-31" style="edgeStyle=orthogonalEdgeStyle;rounded=0;orthogonalLoop=1;jettySize=auto;html=1;" edge="1" parent="1" source="i-3X_E-RtPxqabaHNJif-26" target="i-3X_E-RtPxqabaHNJif-32">
          <mxGeometry relative="1" as="geometry">
            <mxPoint x="440" y="590" as="targetPoint" />
          </mxGeometry>
        </mxCell>
        <mxCell id="i-3X_E-RtPxqabaHNJif-33" style="edgeStyle=orthogonalEdgeStyle;rounded=0;orthogonalLoop=1;jettySize=auto;html=1;" edge="1" parent="1" source="i-3X_E-RtPxqabaHNJif-26" target="i-3X_E-RtPxqabaHNJif-34">
          <mxGeometry relative="1" as="geometry">
            <mxPoint x="840" y="570" as="targetPoint" />
          </mxGeometry>
        </mxCell>
        <mxCell id="i-3X_E-RtPxqabaHNJif-26" value="" style="rhombus;whiteSpace=wrap;html=1;" vertex="1" parent="1">
          <mxGeometry x="540" y="430" width="200" height="60" as="geometry" />
        </mxCell>
        <mxCell id="i-3X_E-RtPxqabaHNJif-27" value="naměřená teplota" style="text;html=1;strokeColor=none;fillColor=none;align=center;verticalAlign=middle;whiteSpace=wrap;rounded=0;" vertex="1" parent="1">
          <mxGeometry x="350" y="410" width="60" height="30" as="geometry" />
        </mxCell>
        <mxCell id="i-3X_E-RtPxqabaHNJif-28" value="&amp;lt;" style="text;html=1;strokeColor=none;fillColor=none;align=center;verticalAlign=middle;whiteSpace=wrap;rounded=0;" vertex="1" parent="1">
          <mxGeometry x="390" y="410" width="60" height="30" as="geometry" />
        </mxCell>
        <mxCell id="i-3X_E-RtPxqabaHNJif-29" value="hranice - hystereze" style="text;html=1;strokeColor=none;fillColor=none;align=center;verticalAlign=middle;whiteSpace=wrap;rounded=0;" vertex="1" parent="1">
          <mxGeometry x="430" y="410" width="110" height="30" as="geometry" />
        </mxCell>
        <mxCell id="i-3X_E-RtPxqabaHNJif-32" value="Vypnout diodu" style="rounded=0;whiteSpace=wrap;html=1;" vertex="1" parent="1">
          <mxGeometry x="380" y="560" width="120" height="60" as="geometry" />
        </mxCell>
        <mxCell id="i-3X_E-RtPxqabaHNJif-34" value="zapnout diodu" style="rounded=0;whiteSpace=wrap;html=1;" vertex="1" parent="1">
          <mxGeometry x="780" y="560" width="120" height="60" as="geometry" />
        </mxCell>
        <mxCell id="i-3X_E-RtPxqabaHNJif-35" value="naměřená teplota" style="text;html=1;strokeColor=none;fillColor=none;align=center;verticalAlign=middle;whiteSpace=wrap;rounded=0;" vertex="1" parent="1">
          <mxGeometry x="740" y="410" width="60" height="30" as="geometry" />
        </mxCell>
        <mxCell id="i-3X_E-RtPxqabaHNJif-36" value="&amp;gt;" style="text;html=1;strokeColor=none;fillColor=none;align=center;verticalAlign=middle;whiteSpace=wrap;rounded=0;" vertex="1" parent="1">
          <mxGeometry x="780" y="410" width="60" height="30" as="geometry" />
        </mxCell>
        <mxCell id="i-3X_E-RtPxqabaHNJif-37" value="hranice - hystereze" style="text;html=1;strokeColor=none;fillColor=none;align=center;verticalAlign=middle;whiteSpace=wrap;rounded=0;" vertex="1" parent="1">
          <mxGeometry x="820" y="410" width="110" height="30" as="geometry" />
        </mxCell>
        <mxCell id="i-3X_E-RtPxqabaHNJif-39" value="" style="swimlane;startSize=0;" vertex="1" parent="1">
          <mxGeometry x="330" y="70" width="610" height="590" as="geometry" />
        </mxCell>
        <mxCell id="i-3X_E-RtPxqabaHNJif-41" value="Časové přerušení" style="text;html=1;strokeColor=none;fillColor=none;align=center;verticalAlign=middle;whiteSpace=wrap;rounded=0;" vertex="1" parent="1">
          <mxGeometry x="330" y="41" width="110" height="30" as="geometry" />
        </mxCell>
      </root>
    </mxGraphModel>
  </diagram>
</mxfile>
